<svg id="Layer_1" data-name="Layer 1" xmlns="http://www.w3.org/2000/svg" viewBox="0 0 1775 203"><defs><style>.cls-1{fill:#4267b2;}.cls-2{fill:#fff;}</style></defs><title>FindUsOn-FB_de-DE-RGB-1775</title><path class="cls-1" d="M41,167.11H4.79V44h37C82.61,44,107,68,107,104.67,107,142.68,83.4,167.11,41,167.11ZM41,59.55H21.54v92H41.83c29.35,0,48.46-15.57,48.46-45.71C90.29,75.5,72.17,59.55,41,59.55Z"/><path class="cls-1" d="M149.4,76.88v56.74c0,15.56,5.91,20.88,17.73,20.88a36.74,36.74,0,0,0,24.62-9.85V76.88h16.16V167.5l-16.16,2.57v-13.2c-8.27,8.28-18.91,13.2-30.34,13.2-17.33,0-28.17-11.63-28.17-31.13V76.88Z"/><path class="cls-1" d="M336,49.11c-4.14-1.78-9.85-3.94-14.38-3.94-9.06,0-13.4,5.51-13.4,19.11v12.6h28.57l-.59,14.58h-28v75.65H292V91.66l-15.76-1.18.79-10.25,14.77-4.33.2-11.43c.4-25.21,12-34.47,29.75-34.47,6.7,0,13.79,2.36,18.12,4.33C339.9,34.73,336,49.5,336,49.11ZM359,57c-7.29,0-10.64-5.52-10.64-11.63S351.72,33.74,359,33.74s10.64,5.52,10.64,11.62S366.3,57,359,57Zm-8.07,110.12V76.49l16.15-2.56v93.18Z"/><path class="cls-1" d="M456.93,167.11V110.37c0-15.56-5.92-20.87-18.72-20.87-9.46,0-18.52,4.92-23.64,9.84v67.77H398.41V76.49l16.16-2.56v13.6c8.27-8.28,18.91-13.6,29.35-13.6,18.32,0,29.16,11.62,29.16,31.12v62.06Z"/><path class="cls-1" d="M563.7,34.33l16.15-2.56V167.11H563.7v-8.27c-6.5,6.11-14.58,11.23-25.22,11.23-25.41,0-40.18-20.49-40.18-47.68,0-27.38,18.91-48.46,45.9-48.46a69.72,69.72,0,0,1,19.5,2.95ZM543.61,88.51c-18.33,0-28.57,15-28.57,33.49,0,19.9,10.05,33.1,26.8,33.1,8.47,0,15.75-3.35,21.86-8.68V95C558.38,90.67,551.49,88.51,543.61,88.51Z"/><path class="cls-1" d="M622.21,124.76c.59,17.72,12.42,30.34,29.75,30.34,9.45,0,19.7-2.57,27-7.49l3,15c-8.08,4.92-18.92,7.49-30.34,7.49-27.19,0-45.71-19.51-45.71-47.09,0-29.15,19.31-49,44.52-49,21.87,0,34.48,13.79,34.48,35.26a54.1,54.1,0,0,1-2,14.39l-60.68.39Zm47.08-13v-1.39c0-13.39-6.3-22.26-20.48-22.26-15.37,0-24.43,12.22-25.81,24Z"/><path class="cls-1" d="M733.91,170.26c-11,0-23.24-3.34-31.51-8.47L706.53,147a53,53,0,0,0,27.78,8.47c10.24,0,17.92-4.73,17.92-12.81,0-9.06-10.63-12-21.27-15-12.81-3.55-26.79-9.85-26.79-26.4,0-16.74,14.18-27.38,32.31-27.38a66.75,66.75,0,0,1,29.15,6.7L761.49,95.4a60,60,0,0,0-25.8-6.7c-9.66,0-16,3.94-16,11.23,0,8.67,9.65,11.63,20.88,14.58,13.2,3.55,27.39,9.85,27.39,27S753.62,170.26,733.91,170.26Z"/><path class="cls-1" d="M820.4,170.07c-17.53,0-26.8-8.48-26.2-28.17l1.37-50.44-15-1,.59-10.25,15-4.53.39-19.5h15.57l-.6,20.68h28.18l-.6,14.58H810.94l-1.38,51c-.19,8.48,3.75,12.81,11.83,12.81a47.54,47.54,0,0,0,16.35-3.35c.19,0,3,14.19,3,14.19A57.12,57.12,0,0,1,820.4,170.07Z"/><path class="cls-1" d="M928.16,76.88v56.74c0,15.56,5.91,20.88,17.73,20.88a36.76,36.76,0,0,0,24.63-9.85V76.88h16.15V167.5l-16.15,2.57v-13.2c-8.28,8.28-18.91,13.2-30.34,13.2-17.34,0-28.17-11.63-28.17-31.13V76.88Z"/><path class="cls-1" d="M1077.1,167.11V110.37c0-15.56-5.91-20.87-18.72-20.87-9.46,0-18.52,4.92-23.64,9.84v67.77h-16.15V76.49l16.15-2.56v13.6c8.27-8.28,18.91-13.6,29.35-13.6,18.33,0,29.16,11.62,29.16,31.12v62.06Z"/><path class="cls-1" d="M1148,170.26c-11,0-23.25-3.34-31.52-8.47l4.13-14.77a53,53,0,0,0,27.79,8.47c10.24,0,17.92-4.73,17.92-12.81,0-9.06-10.64-12-21.27-15-12.81-3.55-26.79-9.85-26.79-26.4,0-16.74,14.18-27.38,32.31-27.38a66.79,66.79,0,0,1,29.15,6.7L1175.6,95.4a60,60,0,0,0-25.8-6.7c-9.66,0-16,3.94-16,11.23,0,8.67,9.66,11.63,20.89,14.58,13.2,3.55,27.38,9.85,27.38,27S1167.73,170.26,1148,170.26Z"/><path class="cls-1" d="M1302.28,157.46c-6.9,8.07-15.17,12.61-24.83,12.61-16.94,0-28.76-11.23-28.76-25.81,0-16.15,11.63-30.34,53.78-32.31v-2.56c0-14.58-5.71-20.49-20.29-20.49-9.26,0-20.68,4.34-29.16,10l-3.14-14.58c7.87-5.52,21.07-10.44,33.88-10.44,24.43,0,35.26,10.44,34.87,35.06v37.83c0,7.49,1,8.87,8.87,8.87l-1,13.59c-14.58,1.18-21.08-3.94-23.44-11.82Zm.19-35.27c-26.79,3.55-36.64,9.06-36.64,20.1,0,8.07,6.11,14,16,14,8.27,0,15.56-4.14,20.68-9.66Z"/><path class="cls-1" d="M1364.34,76.88v56.74c0,15.56,5.9,20.88,17.72,20.88a36.74,36.74,0,0,0,24.63-9.85V76.88h16.16V167.5l-16.16,2.57v-13.2c-8.28,8.28-18.91,13.2-30.34,13.2-17.34,0-28.17-11.63-28.17-31.13V76.88Z"/><path class="cls-1" d="M1502,49.11c-4.14-1.78-9.85-3.94-14.38-3.94-9.06,0-13.4,5.51-13.4,19.11v12.6h28.57l-.59,14.58h-28v75.65h-16.15V91.66l-15.76-1.18.79-10.25,14.77-4.33.2-11.43c.4-25.21,12-34.47,29.75-34.47,6.7,0,13.79,2.36,18.12,4.33C1506,34.73,1502,49.5,1502,49.11Z"/><path class="cls-1" d="M1760.24,4H1586.76A10.76,10.76,0,0,0,1576,14.76V188.24A10.76,10.76,0,0,0,1586.76,199h93.41V123.59h-25.33V94.07h25.33V72.35c0-25.18,15.38-38.9,37.84-38.9a207.77,207.77,0,0,1,22.71,1.16V60.93h-15.49c-12.23,0-14.6,5.81-14.6,14.33v18.8h29.23l-3.8,29.52h-25.43V199h49.61A10.76,10.76,0,0,0,1771,188.24V14.76A10.76,10.76,0,0,0,1760.24,4Z"/><path id="f" class="cls-2" d="M1710.63,199V123.59h25.43l3.8-29.52h-29.23V75.27c0-8.52,2.37-14.33,14.6-14.33h15.49V34.61A207.77,207.77,0,0,0,1718,33.45c-22.46,0-37.84,13.72-37.84,38.9V94.07h-25.33v29.52h25.33V199Z"/></svg>